<?xml version="1.0" standalone="no"?><!DOCTYPE svg PUBLIC "-//W3C//DTD SVG 1.1//EN" "http://www.w3.org/Graphics/SVG/1.1/DTD/svg11.dtd"><svg t="1765250500676" class="icon" viewBox="0 0 1024 1024" version="1.1" xmlns="http://www.w3.org/2000/svg" p-id="5140" xmlns:xlink="http://www.w3.org/1999/xlink" width="200" height="200"><path d="M342.826667 277.333333c-209.429333 7.466667-243.072 170.794667-233.728 251.541334-37.397333 67.093333-25.984 83.84 2.048 111.786666 140.245333 130.453333 401.984 121.130667 523.52 74.56 127.146667-52.181333 191.978667-150.421333 198.186666-203.221333 112.213333-74.538667 114.474667-200.512 98.901334-234.666667-16.64 27.946667-64.618667 48.469333-98.88 64-37.397333 7.466667-91.2-20.522667-106.773334-45.376-10.709333 56.042667 0 98.709333 28.032 121.130667 48.810667 37.269333 24 74.922667 14.656 84.245333-40.448 40.32-117.461333 21.12-154.88-37.674666C513.130667 305.28 405.12 277.333333 342.826667 277.333333z" fill="#2F88FF" p-id="5141"></path><path d="M256 426.666667m-42.666667 0a42.666667 42.666667 0 1 0 85.333334 0 42.666667 42.666667 0 1 0-85.333334 0Z" fill="#FFFFFF" p-id="5142"></path></svg>